<?xml version="1.0" encoding="UTF-8" standalone="no"?>
<svg width="16px" height="16px" viewBox="0 0 16 16" version="1.1" xmlns="http://www.w3.org/2000/svg" xmlns:xlink="http://www.w3.org/1999/xlink">
    <!-- Generator: sketchtool 39.1 (31720) - http://www.bohemiancoding.com/sketch -->
    <title>22EC9C5F-7D9E-4F0C-AC31-675586D6A0B9</title>
    <desc>Created with sketchtool.</desc>
    <defs></defs>
    <g id="ReadingPage" stroke="none" stroke-width="1" fill="none" fill-rule="evenodd">
        <g id="Reading_search_result" transform="translate(-849.000000, -186.000000)" fill="#007FA3">
            <g id="popup_search" transform="translate(773.000000, 63.000000)">
                <g id="glossary_term_1" transform="translate(50.000000, 120.000000)">
                    <g id="Group-3" transform="translate(26.000000, 0.000000)">
                        <path d="M10.0869565,16.2173913 L5.91304348,16.2173913 C5.72104348,16.2173913 5.56521739,16.0615652 5.56521739,15.8695652 C5.56521739,15.6775652 5.72104348,15.5217391 5.91304348,15.5217391 L7.65217391,15.5217391 L7.65217391,9.95652174 L6.60869565,9.95652174 C6.41669565,9.95652174 6.26086957,9.80069565 6.26086957,9.60869565 C6.26086957,9.41669565 6.41669565,9.26086957 6.60869565,9.26086957 L8,9.26086957 C8.192,9.26086957 8.34782609,9.41669565 8.34782609,9.60869565 L8.34782609,15.5217391 L10.0869565,15.5217391 C10.2789565,15.5217391 10.4347826,15.6775652 10.4347826,15.8695652 C10.4347826,16.0615652 10.2789565,16.2173913 10.0869565,16.2173913 M7.65217391,6.47826087 C8.03617391,6.47826087 8.34782609,6.78991304 8.34782609,7.17391304 C8.34782609,7.5586087 8.03617391,7.86956522 7.65217391,7.86956522 C7.26747826,7.86956522 6.95652174,7.5586087 6.95652174,7.17391304 C6.95652174,6.78991304 7.26747826,6.47826087 7.65217391,6.47826087 M8,3 C3.58886957,3 0,6.58886957 0,11 C0,15.4111304 3.58886957,19 8,19 C12.4111304,19 16,15.4111304 16,11 C16,6.58886957 12.4111304,3 8,3" id="glossaryterm"></path>
                    </g>
                </g>
            </g>
        </g>
    </g>
</svg>