<?xml version="1.0" encoding="UTF-8" standalone="no"?>
<svg width="24px" height="24px" viewBox="0 0 24 24" version="1.1" xmlns="http://www.w3.org/2000/svg" xmlns:xlink="http://www.w3.org/1999/xlink">
    <!-- Generator: sketchtool 40.3 (33839) - http://www.bohemiancoding.com/sketch -->
    <title>BC6FD96F-F188-4255-8841-1069B08EB14D</title>
    <desc>Created with sketchtool.</desc>
    <defs></defs>
    <g id="ReadingPage" stroke="none" stroke-width="1" fill="none" fill-rule="evenodd">
        <g id="Reading_search_page_result" transform="translate(-1182.000000, -90.000000)" fill="#74797B">
            <g id="popup_search" transform="translate(829.000000, 47.000000)">
                <g id="search_bar" transform="translate(16.000000, 33.000000)">
                    <path d="M354.068029,27.0418857 C353.570886,27.5390286 352.764314,27.5390286 352.266314,27.0418857 L348.999743,23.7744571 L345.732314,27.0418857 C345.235171,27.5390286 344.4286,27.5390286 343.931457,27.0418857 C343.434314,26.5438857 343.434314,25.7381714 343.931457,25.2401714 L347.198029,21.9736 L343.958029,18.7327429 C343.460886,18.2356 343.460886,17.4290286 343.958029,16.9310286 C344.455171,16.4338857 345.261743,16.4338857 345.758886,16.9310286 L348.999743,20.1718857 L352.239743,16.9310286 C352.737743,16.4338857 353.544314,16.4338857 354.041457,16.9310286 C354.539457,17.4290286 354.539457,18.2356 354.041457,18.7327429 L350.8006,21.9736 L354.068029,25.2401714 C354.566029,25.7381714 354.566029,26.5438857 354.068029,27.0418857 M348.999743,10.0001714 C342.372314,10.0001714 336.999743,15.3727429 336.999743,22.0001714 C336.999743,28.6276 342.372314,34.0001714 348.999743,34.0001714 C355.627171,34.0001714 360.999743,28.6276 360.999743,22.0001714 C360.999743,15.3727429 355.627171,10.0001714 348.999743,10.0001714" id="ic_cancel"></path>
                </g>
            </g>
        </g>
    </g>
</svg>