<?xml version="1.0" encoding="UTF-8" standalone="no"?>
<svg width="24px" height="24px" viewBox="0 0 24 24" version="1.1" xmlns="http://www.w3.org/2000/svg" xmlns:xlink="http://www.w3.org/1999/xlink">
    <!-- Generator: sketchtool 39.1 (31720) - http://www.bohemiancoding.com/sketch -->
    <title>617A97FF-8762-4F88-B0E3-C9EC490575FB</title>
    <desc>Created with sketchtool.</desc>
    <defs></defs>
    <g id="ReadingPage" stroke="none" stroke-width="1" fill="none" fill-rule="evenodd">
        <g id="Reading_search_result" transform="translate(-852.000000, -113.000000)" fill="#636769">
            <g id="popup_search" transform="translate(773.000000, 63.000000)">
                <g id="search_bar" transform="translate(67.000000, 39.000000)">
                    <g id="ic_search_grey" transform="translate(12.000000, 11.000000)">
                        <path d="M22.32,23.52 C22.02,23.52 21.72,23.4 21.54,23.22 L13.62,15.3 C12.18,16.38 10.38,16.98 8.58,16.98 C3.96,16.98 0.24,13.26 0.24,8.64 C0.24,4.02 3.96,0.3 8.58,0.3 C13.2,0.3 16.92,4.02 16.92,8.64 C16.92,10.44 16.32,12.24 15.24,13.68 L23.1,21.6 C23.34,21.84 23.4,22.08 23.4,22.38 C23.4,22.68 23.28,22.98 23.1,23.16 C22.92,23.4 22.62,23.52 22.32,23.52 L22.32,23.52 Z M13.68,14.28 L22.02,22.62 C22.14,22.74 22.38,22.74 22.56,22.62 C22.62,22.56 22.68,22.44 22.68,22.38 C22.68,22.26 22.62,22.2 22.56,22.14 L14.22,13.74 L14.46,13.5 C15.6,12.12 16.2,10.44 16.2,8.64 C16.2,4.44 12.78,1.02 8.58,1.02 C4.38,1.02 0.96,4.44 0.96,8.64 C0.96,12.84 4.38,16.26 8.58,16.26 C10.32,16.26 12.06,15.66 13.44,14.52 L13.68,14.28 L13.68,14.28 Z M8.58,15.48 C4.8,15.48 1.74,12.42 1.74,8.64 C1.74,4.86 4.8,1.8 8.58,1.8 C12.36,1.8 15.42,4.86 15.42,8.64 C15.42,12.42 12.36,15.48 8.58,15.48 L8.58,15.48 Z M8.58,2.52 C5.22,2.52 2.46,5.28 2.46,8.64 C2.46,12 5.22,14.76 8.58,14.76 C11.94,14.76 14.7,12 14.7,8.64 C14.7,5.28 11.94,2.52 8.58,2.52 L8.58,2.52 Z" id="Shape"></path>
                        <path d="M22.86,21.84 L14.7,13.74 C15.84,12.36 16.56,10.56 16.56,8.64 C16.56,4.26 12.96,0.66 8.58,0.66 C4.2,0.66 0.6,4.26 0.6,8.64 C0.6,13.02 4.2,16.62 8.58,16.62 C10.5,16.62 12.3,15.9 13.68,14.76 L21.78,22.86 C21.9,22.98 22.14,23.1 22.32,23.1 C22.5,23.1 22.68,23.04 22.86,22.86 C23.16,22.62 23.16,22.14 22.86,21.84 L22.86,21.84 Z M8.58,15.12 C4.98,15.12 2.1,12.24 2.1,8.64 C2.1,5.04 4.98,2.16 8.58,2.16 C12.18,2.16 15.06,5.04 15.06,8.64 C15.06,12.18 12.18,15.12 8.58,15.12 L8.58,15.12 Z" id="Shape"></path>
                    </g>
                </g>
            </g>
        </g>
    </g>
</svg>